<svg width="80" height="80" viewBox="0 0 80 80" fill="none" xmlns="http://www.w3.org/2000/svg">
<g clip-path="url(#clip0_20_6456)">
<rect width="80" height="80" rx="40" fill="#FFB800"/>
<path d="M47.3497 40.3961C48.2636 40.3961 49.1238 40.9068 49.9302 41.9283C50.7366 42.9229 51.1398 43.7965 51.1398 44.5491C51.1398 45.0061 50.9248 45.2346 50.4947 45.2346C50.199 45.2346 49.7421 45.0061 49.1238 44.5491C48.5056 44.0653 47.8739 43.8234 47.2287 43.8234C46.5836 43.8234 45.5621 44.1997 44.1644 44.9524C42.7935 45.705 42.108 46.498 42.108 47.3313C42.108 47.9495 43.3445 49.0113 45.8175 50.5166C46.7583 51.108 47.6051 51.8741 48.3577 52.8149C49.1372 53.7288 49.527 54.7234 49.527 55.7986C49.527 56.847 48.7878 57.8819 47.3094 58.9033C45.8578 59.8979 44.1509 60.3952 42.1886 60.3952C40.2532 60.3952 38.5329 59.9248 37.0276 58.984C35.5492 58.0431 34.8099 57.1561 34.8099 56.3228C34.8099 55.9733 34.8906 55.7045 35.0519 55.5164C35.24 55.3013 35.4685 55.1938 35.7373 55.1938C36.0061 55.1938 36.3825 55.3685 36.8663 55.718C38.3179 56.7663 39.8232 57.2905 41.3822 57.2905C42.9682 57.2905 44.1106 57.1158 44.8095 56.7663C45.5084 56.39 45.8578 55.9061 45.8578 55.3148C45.8578 54.6965 45.4681 54.0514 44.6885 53.3794C43.909 52.6805 43.0488 52.0622 42.108 51.5246C41.1941 50.987 40.3473 50.3284 39.5678 49.5489C38.7883 48.7694 38.3985 47.9764 38.3985 47.17C38.3985 45.7453 39.514 44.2669 41.7451 42.7347C44.0031 41.1756 45.8713 40.3961 47.3497 40.3961ZM58.1468 34.6706C58.1468 34.133 58.3619 33.6222 58.792 33.1384C59.222 32.6545 59.6521 32.4126 60.0822 32.4126C60.5392 32.4126 61.0768 32.9637 61.6951 34.0658C62.3133 35.141 62.6224 36.0415 62.6224 36.7672C62.6224 37.036 62.5015 37.278 62.2595 37.493C62.0176 37.7081 61.7623 37.8156 61.4934 37.8156C60.8483 37.8156 60.1225 37.4258 59.3161 36.6463C58.5366 35.8667 58.1468 35.2082 58.1468 34.6706ZM57.9452 40.3961C58.456 40.3961 58.9398 40.7052 59.3968 41.3235C59.8537 41.9417 60.0822 42.5465 60.0822 43.1379C60.0822 43.7293 59.6925 45.5034 58.9129 48.4603C58.1334 51.3902 57.1522 54.6831 55.9695 58.3388C55.5125 59.6829 54.9346 60.3549 54.2357 60.3549C53.8594 60.3549 53.5368 60.207 53.268 59.9113C52.9992 59.5888 52.8648 59.2393 52.8648 58.863C52.8648 58.4598 52.9589 57.8415 53.1471 57.0082C53.3621 56.1481 53.6578 55.0191 54.0341 53.6213C54.4373 52.1966 54.7464 51.0408 54.9615 50.1537C55.2034 49.2667 55.4453 48.2721 55.6873 47.17C55.9292 46.041 56.1174 45.1405 56.2518 44.4685C56.413 43.7696 56.5878 43.0707 56.7759 42.3718C57.1522 41.0547 57.542 40.3961 57.9452 40.3961Z" fill="black"/>
<path d="M36.1339 45.1997C33.7818 39.8236 29.4978 41.1676 27.6497 42.5117C30.6738 42.5117 34.5658 44.5837 36.1339 45.6197V45.1997Z" fill="black" stroke="black" stroke-width="0.168003"/>
<path d="M26.2217 62C27.6329 61.4624 30.1138 59.48 31.1778 58.5559L26.5577 58.2199C27.2969 58.8248 26.6417 60.992 26.2217 62Z" fill="black"/>
<path d="M24.9617 52.4238V54.6079C26.9777 54.6079 31.2338 55.8959 33.1098 56.5399L34.7898 54.6079C33.9834 52.7934 27.9017 52.3958 24.9617 52.4238Z" fill="black"/>
<path d="M25.6337 46.2077C25.1633 46.8797 24.9897 48.6718 24.9617 49.4838C26.6417 47.535 32.9418 50.2958 35.8819 51.9198C36.4195 51.0462 36.5539 49.1478 36.5539 48.3078C35.2099 47.1317 26.2217 45.3677 25.6337 46.2077Z" fill="black"/>
<path d="M26.2217 62C27.6329 61.4624 30.1138 59.48 31.1778 58.5559L26.5577 58.2199C27.2969 58.8248 26.6417 60.992 26.2217 62Z" stroke="black" stroke-width="0.168003"/>
<path d="M24.9617 52.4238V54.6079C26.9777 54.6079 31.2338 55.8959 33.1098 56.5399L34.7898 54.6079C33.9834 52.7934 27.9017 52.3958 24.9617 52.4238Z" stroke="black" stroke-width="0.168003"/>
<path d="M25.6337 46.2077C25.1633 46.8797 24.9897 48.6718 24.9617 49.4838C26.6417 47.535 32.9418 50.2958 35.8819 51.9198C36.4195 51.0462 36.5539 49.1478 36.5539 48.3078C35.2099 47.1317 26.2217 45.3677 25.6337 46.2077Z" stroke="black" stroke-width="0.168003"/>
<path d="M18.4397 31.1042C20.3214 27.8786 23.4798 27.0721 24.8238 27.0721C26.7543 28.1116 27.2013 29.1989 27.0259 30.0962L28.1839 28.4162C29.2591 26.5345 31.3511 24.1352 33.56 22.3681C36.2481 20.2176 39.3841 19.008 40.6161 18.672C44.3794 17.8656 47.7843 19.456 49.0163 20.352C53.586 23.3089 49.3523 25.9441 46.6642 26.8921C47.585 28.3314 47.3213 29.7751 46.6642 30.4322C43.9762 32.7842 38.9361 33.4563 33.56 33.7923L31.544 33.1202L32.216 35.8083C33.0224 39.3028 30.76 40.4004 29.5279 40.5124C27.1759 40.5124 25.4959 39.3924 24.4878 38.1603C23.1438 36.8163 23.443 33.7075 23.9286 32.6995C22.8506 33.0945 21.7407 33.3881 21.1278 33.4563C17.3645 33.7251 17.7677 32.0002 18.4397 31.1042Z" fill="black"/>
<path d="M20.4558 21.024C20.9038 19.904 22.0014 18.336 22.8078 21.024C23.6142 23.7121 24.4878 26.1761 24.8238 27.0721M24.8238 27.0721C25.3839 25.6161 26.5039 22.3009 26.5039 20.688C26.5039 19.904 26.1679 18.6048 24.8238 19.68M24.8238 27.0721C23.4798 27.0721 20.3214 27.8786 18.4397 31.1042C17.7677 32.0002 17.3645 33.7251 21.1278 33.4563C21.7407 33.3881 22.8506 33.0945 23.9286 32.6995M24.8238 27.0721C26.7543 28.1116 27.2013 29.1989 27.0259 30.0962M23.9286 32.6995C24.6234 32.4449 25.3051 32.1977 25.8319 31.7762C26.1362 31.5632 26.4588 31.2575 26.697 30.8875C26.8512 30.6481 26.9701 30.3818 27.0259 30.0962M23.9286 32.6995C23.443 33.7075 23.1438 36.8163 24.4878 38.1603C25.4959 39.3924 27.1759 40.5124 29.5279 40.5124C30.76 40.4004 33.0224 39.3028 32.216 35.8083L31.544 33.1202L33.56 33.7923C38.9361 33.4563 43.9762 32.7842 46.6642 30.4322C47.3213 29.7751 47.585 28.3314 46.6642 26.8921C49.3523 25.9441 53.586 23.3089 49.0163 20.352C47.7843 19.456 44.3794 17.8656 40.6161 18.672C39.3841 19.008 36.2481 20.2176 33.56 22.3681C31.3511 24.1352 29.2591 26.5345 28.1839 28.4162L27.0259 30.0962" stroke="black" stroke-width="0.336006"/>
<path d="M28.5199 31.7762C29.5279 30.7682 32.888 27.0722 36.2481 25.0561H37.9281L36.9201 24.7201L39.2721 24.3841C42.2962 24.0481 44.3122 24.7201 45.9922 26.0641C46.2643 26.3362 47.7267 27.4661 47.9045 27.7442" stroke="#FFB800" stroke-width="0.201604"/>
<path d="M23.4798 33.1203C23.795 32.332 25.2387 30.4454 26.697 30.8875C26.697 30.8875 27.5119 28.4162 28.1839 27.7442" stroke="#FFB800" stroke-width="0.201604"/>
<path d="M-3.76465 -0.965476L0.488695 -3.42241L4.74204 -0.965475L4.74204 3.94883L0.488694 6.40576L-3.76465 3.94883L-3.76465 -0.965476Z" stroke="black"/>
<path d="M17.3911 -0.965644L21.6445 -3.42258L25.8978 -0.965643L25.8978 3.94866L21.6445 6.40559L17.3911 3.94866L17.3911 -0.965644Z" stroke="black"/>
<path d="M22.6801 8.54281L26.9334 6.08588L31.1868 8.54281L31.1868 13.4571L26.9334 15.914L22.6801 13.4571L22.6801 8.54281Z" stroke="black"/>
<path d="M6.81323 -0.965476L11.0666 -3.42241L15.3199 -0.965475L15.3199 3.94883L11.0666 6.40576L6.81323 3.94883L6.81323 -0.965476Z" stroke="black"/>
<path d="M27.969 -0.965567L32.2224 -3.4225L36.4757 -0.965567L36.4757 3.94874L32.2224 6.40567L27.969 3.94874L27.969 -0.965567Z" stroke="black"/>
<path d="M33.258 8.54289L37.5113 6.08595L41.7647 8.54289L41.7647 13.4572L37.5113 15.9141L33.258 13.4572L33.258 8.54289Z" stroke="black"/>
<path d="M1.39111 9.03436L5.64446 6.57742L9.8978 9.03436L9.8978 13.9487L5.64446 16.4056L1.39111 13.9487L1.39111 9.03436Z" stroke="black"/>
<path d="M6.68008 18.5428L10.9334 16.0859L15.1868 18.5428L15.1868 23.4571L10.9334 25.914L6.68008 23.4571L6.68008 18.5428Z" stroke="black"/>
<path d="M11.969 9.03443L16.2224 6.5775L20.4757 9.03443L20.4757 13.9487L16.2224 16.4057L11.969 13.9487L11.969 9.03443Z" stroke="black"/>
<path d="M11.9354 66.0345L16.1887 63.5776L20.4421 66.0345L20.4421 70.9488L16.1887 73.4057L11.9354 70.9488L11.9354 66.0345Z" stroke="black"/>
<path d="M38.3801 75.5428L42.6334 73.0859L46.8868 75.5428L46.8868 80.4571L42.6334 82.914L38.3801 80.4571L38.3801 75.5428Z" stroke="black"/>
<path d="M22.5653 66.0345L26.8187 63.5776L31.072 66.0345L31.072 70.9488L26.8187 73.4057L22.5653 70.9488L22.5653 66.0345Z" stroke="black"/>
<path d="M43.7211 66.0344L47.9745 63.5774L52.2278 66.0344L52.2278 70.9487L47.9745 73.4056L43.7211 70.9487L43.7211 66.0344Z" stroke="black"/>
<path d="M-3.91465 75.5345L0.338701 73.0776L4.59205 75.5345L4.59205 80.4488L0.3387 82.9057L-3.91465 80.4488L-3.91465 75.5345Z" stroke="black"/>
<path d="M17.2411 75.5344L21.4945 73.0774L25.7478 75.5344L25.7478 80.4487L21.4945 82.9056L17.2411 80.4487L17.2411 75.5344Z" stroke="black"/>
<path d="M6.66323 75.5345L10.9166 73.0776L15.1699 75.5345L15.1699 80.4488L10.9166 82.9057L6.66323 80.4488L6.66323 75.5345Z" stroke="black"/>
<path d="M27.819 75.5344L32.0724 73.0775L36.3257 75.5344L36.3257 80.4488L32.0724 82.9057L27.819 80.4488L27.819 75.5344Z" stroke="black"/>
<path d="M-3.91993 56.5428L0.333421 54.0859L4.58677 56.5428L4.58677 61.4571L0.33342 63.914L-3.91993 61.4571L-3.91993 56.5428Z" stroke="black"/>
<path d="M1.36901 47.0344L5.62236 44.5775L9.87571 47.0344L9.87571 51.9487L5.62236 54.4057L1.36901 51.9487L1.36901 47.0344Z" stroke="black"/>
<path d="M6.65795 56.5429L10.9113 54.086L15.1647 56.5429L15.1647 61.4572L10.9113 63.9141L6.65795 61.4572L6.65795 56.5429Z" stroke="black"/>
<path d="M1.36901 66.0513L5.62236 63.5944L9.87571 66.0513L9.87571 70.9656L5.62236 73.4226L1.36901 70.9656L1.36901 66.0513Z" stroke="black"/>
<path d="M-4.03098 19.0344L0.222368 16.5775L4.47572 19.0344L4.47572 23.9487L0.222367 26.4057L-4.03098 23.9487L-4.03098 19.0344Z" stroke="black"/>
<path d="M1.25796 28.5429L5.51131 26.086L9.76466 28.5429L9.76466 33.4572L5.51131 35.9141L1.25796 33.4572L1.25796 28.5429Z" stroke="black"/>
<path d="M-4.03098 38.0513L0.222368 35.5944L4.47572 38.0513L4.47572 42.9656L0.222367 45.4226L-4.03098 42.9656L-4.03098 38.0513Z" stroke="black"/>
</g>
<defs>
<clipPath id="clip0_20_6456">
<rect width="80" height="80" rx="40" fill="white"/>
</clipPath>
</defs>
</svg>
